<?xml version="1.0"?>
<svg xmlns="http://www.w3.org/2000/svg" xmlns:xlink="http://www.w3.org/1999/xlink" xmlns:svgjs="http://svgjs.com/svgjs" version="1.1" width="512" height="512" x="0" y="0" viewBox="0 0 512 512" style="enable-background:new 0 0 512 512" xml:space="preserve" class=""><rect width="512" height="512" rx="20" ry="20" fill="#3e464c" shape="rounded"/><g transform="matrix(0.88,0,0,0.88,30.720000000000056,30.720000000000056)">
<path xmlns="http://www.w3.org/2000/svg" style="" d="M475.703,512H36.297C16.251,512,0,495.749,0,475.703V36.297C0,16.251,16.251,0,36.297,0h439.407  C495.749,0,512,16.251,512,36.297v439.407C512,495.749,495.749,512,475.703,512z" fill="#f5e50f" data-original="#d2e4ff" class=""/>
<path xmlns="http://www.w3.org/2000/svg" style="" d="M475.703,0H454v210.235C454,347.305,342.431,458,205.362,458H0v17.703  C0,495.749,16.251,512,36.297,512h439.407C495.749,512,512,495.749,512,475.703V36.297C512,16.251,495.749,0,475.703,0z" fill="#f5e50f" data-original="#b6d7ff" class=""/>
<circle xmlns="http://www.w3.org/2000/svg" style="" cx="255.65" cy="181.41" r="59.52" fill="#181618" data-original="#175be7" class=""/>
<path xmlns="http://www.w3.org/2000/svg" style="" d="M376.307,389H129.61c-4.403,0-7.61-3.428-7.61-7.831v-38.38C122,303.525,153.466,272,192.73,272  h120.457C352.451,272,384,303.525,384,342.788v38.38C384,385.572,380.71,389,376.307,389z" fill="#0d0e0e" data-original="#6ca5ff" class=""/>
<g xmlns="http://www.w3.org/2000/svg">
	<rect x="169" y="345" style="" width="17" height="44" fill="#181618" data-original="#175be7" class=""/>
	<rect x="320" y="345" style="" width="16" height="44" fill="#181618" data-original="#175be7" class=""/>
</g>
<g xmlns="http://www.w3.org/2000/svg">
</g>
<g xmlns="http://www.w3.org/2000/svg">
</g>
<g xmlns="http://www.w3.org/2000/svg">
</g>
<g xmlns="http://www.w3.org/2000/svg">
</g>
<g xmlns="http://www.w3.org/2000/svg">
</g>
<g xmlns="http://www.w3.org/2000/svg">
</g>
<g xmlns="http://www.w3.org/2000/svg">
</g>
<g xmlns="http://www.w3.org/2000/svg">
</g>
<g xmlns="http://www.w3.org/2000/svg">
</g>
<g xmlns="http://www.w3.org/2000/svg">
</g>
<g xmlns="http://www.w3.org/2000/svg">
</g>
<g xmlns="http://www.w3.org/2000/svg">
</g>
<g xmlns="http://www.w3.org/2000/svg">
</g>
<g xmlns="http://www.w3.org/2000/svg">
</g>
<g xmlns="http://www.w3.org/2000/svg">
</g>
</g></svg>
